inDegrees=no
num_controls=7
num_derivatives=13
num_iterations=128
num_multipliers=7
num_parameters=0
num_slacks=7
num_states=26
objective=5.165637
objective_accelerations=0.411996
objective_balance=0.109324
objective_effort=0.320063
objective_height=4.242135
objective_ligament=0.082119
solver_duration=1455.818501
status=Solve_Succeeded
success=true
DataType=double
version=3
OpenSimVersion=4.4-2022-07-23-0e9fedc
endheader
time	/jointset/ground_pelvis/pelvis_tilt/value	/jointset/ground_pelvis/pelvis_tx/value	/jointset/ground_pelvis/pelvis_ty/value	/jointset/hip_l/hip_flexion_l/value	/jointset/hip_l/hip_adduction_l/value	/jointset/hip_l/hip_rotation_l/value	/jointset/back/lumbar_extension/value	/jointset/patellofemoral_l/patellar_flexion_l/value	/jointset/knee_l/knee_flexion_l/value	/jointset/knee_l/knee_adduction_l/value	/jointset/knee_l/knee_rotation_l/value	/jointset/ankle_l/ankle_angle_l/value	/jointset/subtalar_l/subtalar_angle_l/value	/jointset/ground_pelvis/pelvis_tilt/speed	/jointset/ground_pelvis/pelvis_tx/speed	/jointset/ground_pelvis/pelvis_ty/speed	/jointset/hip_l/hip_flexion_l/speed	/jointset/hip_l/hip_adduction_l/speed	/jointset/hip_l/hip_rotation_l/speed	/jointset/back/lumbar_extension/speed	/jointset/patellofemoral_l/patellar_flexion_l/speed	/jointset/knee_l/knee_flexion_l/speed	/jointset/knee_l/knee_adduction_l/speed	/jointset/knee_l/knee_rotation_l/speed	/jointset/ankle_l/ankle_angle_l/speed	/jointset/subtalar_l/subtalar_angle_l/speed	/forceset/tau_hip_flexion_l	/forceset/tau_hip_adduction_l	/forceset/tau_hip_rotation_l	/forceset/tau_knee_flexion_l	/forceset/tau_ankle_angle_l	/forceset/tau_subtalar_angle_l	/forceset/tau_lumbar_extension	lambda_cid13_p0	lambda_cid13_p1	lambda_cid13_p2	lambda_cid13_p3	lambda_cid13_p4	lambda_cid13_p5	lambda_cid14_p0	/jointset/ground_pelvis/pelvis_tilt/accel	/jointset/ground_pelvis/pelvis_tx/accel	/jointset/ground_pelvis/pelvis_ty/accel	/jointset/hip_l/hip_flexion_l/accel	/jointset/hip_l/hip_adduction_l/accel	/jointset/hip_l/hip_rotation_l/accel	/jointset/back/lumbar_extension/accel	/jointset/patellofemoral_l/patellar_flexion_l/accel	/jointset/knee_l/knee_flexion_l/accel	/jointset/knee_l/knee_adduction_l/accel	/jointset/knee_l/knee_rotation_l/accel	/jointset/ankle_l/ankle_angle_l/accel	/jointset/subtalar_l/subtalar_angle_l/accel	gamma_cid13_p0	gamma_cid13_p1	gamma_cid13_p2	gamma_cid13_p3	gamma_cid13_p4	gamma_cid13_p5	gamma_cid14_p0
1.5	-0.31471164362795	0.001972802999005908	0.8082277621897986	0.9833170978627447	-0.3051616464810598	-0.05812858806497543	-0.3158684907545329	0.6381741548757813	0.6381741548756863	-0.1717647051209452	0.174456271866125	0.1402235912874553	-0.02235752774991722	0.3799484914384514	0.112608183900047	0.3301291967867726	-1.60004103388919	0.03410132508410114	-0.5742150206332854	0.5856366379094182	-1.61970625042117	-1.619706250421511	0.007695006617795633	-0.0004879881548612812	-0.4993583591254921	-0.04749795315162213	-0.1783831938316879	0.03900248564326513	-0.02198658937056107	-0.2027704731178883	0.04783703289816792	0.03788418735932839	0.1794349699672987	-23.21894593898255	-16.3390326101556	6.715918007545325	4.736290780824789	-612.596276456665	-55.42687142438403	-31.15233164058571	0.3257723652013755	0.2885885960335757	-0.2626835535095385	-0.9719162419591363	0.4755786710364034	-0.320790573645608	1.21738611731932	-0.9756792737747557	-0.9756792737747486	-0.03970666184211394	-0.03307754807257664	-0.3105118238563714	0.44936619622874	7.184326538944011e-08	1.092644556608473e-06	-4.32082560460369e-07	9.01314695504516e-08	1.186645267029925e-07	5.609082707561053e-07	1.456336801654805e-07
1.51	-0.3108961000771285	0.003113208113928799	0.8115152799824238	0.9672698650145639	-0.3047974355909669	-0.06388687561508723	-0.3099523175357689	0.6219305481745659	0.621930548174412	-0.1716907487080998	0.1744511559333682	0.1352150165290092	-0.02281073110757753	0.3831124482261999	0.1154578715461568	0.3273110296366066	-1.609178024456547	0.03875234030078942	-0.5773630501346836	0.5975140450429098	-1.628780220882331	-1.628780220882617	0.007092344427359112	-0.0005344423303213631	-0.5022775166490485	-0.043128361864906	-0.1728242519426791	0.03774365575383948	-0.02192292881269772	-0.2015468314324366	0.05105490121175672	0.03711023589534285	0.1748437407409042	-22.07250899783559	-16.28449392542169	6.799579367634909	4.358702730883719	-609.8051891908399	-55.71133327707626	-32.01357235530834	0.3045509691298534	0.2809344156651651	-0.300857723712371	-0.8504531628895996	0.4615275246228281	-0.2997329700410609	1.160323890904758	-0.8380562722897404	-0.838056272281571	-0.07097527589448728	0.009786883029147436	-0.2707376874760482	0.4327703639721279	6.905391143247217e-08	1.165847137932478e-06	-4.32905097364891e-07	9.894424863918213e-08	1.241238715252381e-07	5.920165311834584e-07	1.507636132159921e-07
1.52	-0.3070503482317264	0.004281665218665096	0.8147727212179583	0.9511380897209513	-0.3043863816331717	-0.06967422822656744	-0.3039198890697634	0.6056032417007146	0.6056032417005467	-0.1716229047727339	0.1744456187059914	0.1301796262011498	-0.02321983559855479	0.3859901503567438	0.1182185818627283	0.3241138853687052	-1.616949522974515	0.04346993862301837	-0.5800280329022734	0.6088876873580659	-1.636446204943616	-1.636446204943848	0.006472511106931549	-0.0005722470933183217	-0.5047214730074319	-0.03867817981501171	-0.1672653100536971	0.03648482586434042	-0.02185926825417147	-0.2003231897471177	0.05427276952530165	0.03633628443126211	0.1702525115145195	-20.93342123810825	-16.23097972363303	6.886044612461098	3.988024716067076	-607.136586485777	-56.04447257883439	-32.85181914228925	0.2685214337600519	0.2707931301261565	-0.3384789770565966	-0.6988178320812977	0.4888952921443601	-0.2241812268842356	1.11663315365194	-0.6940819937997623	-0.6940819937997786	-0.04314088784045876	-0.03134766557959442	-0.215471590821491	0.4654843488642942	6.506764804820571e-08	1.231038043231049e-06	-4.320140156294362e-07	1.07297864242694e-07	1.280167607139137e-07	6.188056909758903e-07	1.548771015384981e-07
1.53	-0.3031772874303278	0.005477223138638835	0.8179963317910367	0.9349355018059944	-0.3039278996271832	-0.07548591508052986	-0.2977764143169421	0.5892063376137634	0.5892063376136223	-0.1715613909400265	0.1744398506767725	0.1251221180550267	-0.02358412762792384	0.3885691447758042	0.1208714137055151	0.3205483261625156	-1.623328343399589	0.04823190843865603	-0.5822244899572339	0.619706606609115	-1.642696530767319	-1.642696530767222	0.005822906493191539	-0.0005833942880885325	-0.5067053229165506	-0.03417323573706484	-0.1615668300835988	0.0350729310491066	-0.0218321120505311	-0.1991598770587492	0.05755437393516761	0.03547941655600465	0.1655246283539789	-19.77729331126481	-16.14326197023885	6.96571242389395	3.657567706856752	-604.4577415534507	-56.34510556553543	-33.66340804932508	0.2446664388998306	0.2593138230789344	-0.3745535673332701	-0.5714475948963637	0.4705895721872075	-0.2044830888370296	1.049422820797238	-0.5548275320912093	-0.5548275320418602	-0.07679493613014172	0.01380284495667883	-0.1785978537460295	0.4438908448966047	5.980966839743459e-08	1.287716542752596e-06	-4.293022140890058e-07	1.151636186431609e-07	1.302452907919214e-07	6.410058063437183e-07	1.579106173374981e-07
1.54	-0.2992800210861641	0.006698666499384125	0.8211824949370664	0.9186763189973598	-0.3034216495738489	-0.0813169875338427	-0.2915277700696148	0.5727540663375078	0.572754066337361	-0.171506558091098	0.1744339313938357	0.120047020177258	-0.02390319193498581	0.3908312589117311	0.1233956700170388	0.3166243999590336	-1.628268501711708	0.05302354809083844	-0.5839051527735962	0.6299215862588373	-1.647519642808442	-1.647519642808016	0.005136314359909093	-0.0006024978275640656	-0.5082394193372192	-0.02963263535362809	-0.1558683501133732	0.03366103623393083	-0.02180495584727892	-0.1979965643702969	0.06083597834505535	0.03462254868081797	0.1607967451935425	-18.62892030163552	-16.05629011957454	7.047902660107954	3.335627922774112	-601.9075063576125	-56.69519400332136	-34.44474204968608	0.2051453771329662	0.2450780238738213	-0.4101523765150338	-0.4110854094902605	0.4948292594532055	-0.1210223791649388	0.9958452333863017	-0.4086392372837576	-0.4086392372837524	-0.05053839174908391	-0.03293893452028381	-0.1255208931311355	0.4726156099622038	5.431762037075279e-08	1.341345305923394e-06	-4.267200893811916e-07	1.224190515550616e-07	1.329739509948635e-07	6.612469634739136e-07	1.60664680049263e-07
1.55	-0.2953617148688562	0.007944689223268908	0.8243276653724458	0.9023749607458994	-0.3028674225341906	-0.08716234833551455	-0.2851801262665605	0.5562608175801009	0.5562608175800632	-0.1714588293561528	0.1744278811456771	0.1149588792189272	-0.02417674601034894	0.3927752528696802	0.125784797358984	0.3123533330412648	-1.631754091612908	0.05781989638317113	-0.5850739834191229	0.639494932933947	-1.650878231595027	-1.650878231595024	0.004398451234849216	-0.0006111318611004701	-0.5093076714028552	-0.02507746425995716	-0.1500302932891333	0.03205954207651433	-0.02183210039636322	-0.1969998949819603	0.06442612838232988	0.03365124053378464	0.1559585043600992	-17.38526573295857	-15.93516246845533	7.123347675978701	2.95020118683333	-599.3732683577894	-57.01391487132022	-35.19220972023036	0.1808225919871209	0.2322450023213927	-0.4440093376900346	-0.2799300412933295	0.4716519986259734	-0.1006861971324352	0.9212431712940602	-0.2617200274481286	-0.2617200275118512	-0.08686448934209222	0.0147477740961895	-0.08529367787354702	0.4469017853232803	4.855588486747824e-08	1.3914602424292e-06	-4.242873749370437e-07	1.289712879692666e-07	1.362788480808824e-07	6.792310600259669e-07	1.63096764203996e-07
1.56	-0.2914256094745949	0.00921388620316514	0.8274284400409915	0.8860462197432835	-0.3022653091346982	-0.09301657200162143	-0.2787401162394026	0.5397415326692097	0.5397415326692695	-0.1714187700957698	0.1744216592395383	0.109862492477024	-0.02440476158952425	0.3943910943021038	0.1280305212193287	0.3077452465923395	-1.633745051948462	0.06260082005560968	-0.585677725660081	0.6483948310779295	-1.652726873505697	-1.652726873506117	0.003602419451511735	-0.0006368294199825043	-0.5098885760522263	-0.02052493611611551	-0.1441922364646701	0.03045804791913467	-0.02185924494555773	-0.1960032255935605	0.0680162784196159	0.03267993238679429	0.151120263526857	-16.14961666413318	-15.81443813921885	7.200919331732962	2.574826016065102	-596.971186647505	-57.38239272180844	-35.90232331835044	0.1395148720274909	0.2163973275540048	-0.47755628274629	-0.1121594963613566	0.4917443354742606	-0.008004698251534438	0.8611555271606455	-0.106649862100937	-0.1066498621009375	-0.06217212340473303	-0.03635163958905169	-0.02805140987783848	0.4720870199963011	4.4929839068791e-08	1.429134049703378e-06	-4.28018204466288e-07	1.325592087512048e-07	1.420791418605817e-07	6.941627674754853e-07	1.655915865486611e-07
